<svg xmlns="http://www.w3.org/2000/svg" width="96.49" height="33.217" viewBox="0 0 96.49 33.217"><defs><style>.a{fill:#e83838;}.b{fill:#202340;}</style></defs><g transform="translate(-28.357 -25.943)"><path class="a" d="M40.594,48.91c2.877,0,5.777-.053,8.663.02a3.434,3.434,0,0,1,3.288,2.487A3.748,3.748,0,0,1,51.372,55.4a2.972,2.972,0,0,1-3.54.294A2.293,2.293,0,0,1,46.7,53.1a2.108,2.108,0,0,1,2.213-1.9,1.535,1.535,0,0,1,1.5,1.969c-.175.443-.5.885-.991.777-.591-.137-.367-.586-.133-.956a.443.443,0,0,0-.1-.664.788.788,0,0,0-.863.038,1.328,1.328,0,0,0-.631,1.432A1.427,1.427,0,0,0,49,55.068a2.223,2.223,0,0,0,2.558-1.662,2.6,2.6,0,0,0-1.131-3.153,3.445,3.445,0,0,0-1.752-.418H32.416a2.781,2.781,0,0,0-2.892,1.783,2.551,2.551,0,0,0,.608,2.8,1.99,1.99,0,0,0,2.361.518,1.467,1.467,0,0,0,.4-2.489.885.885,0,0,0-.994-.133c-.35.2-.237.5-.042.77s.246.613-.055.8c-.378.237-.664-.06-.9-.33a1.264,1.264,0,0,1-.046-1.679,1.61,1.61,0,0,1,1.879-.626,2.4,2.4,0,0,1,1.629,2.877A2.707,2.707,0,0,1,31.2,56.074a3.488,3.488,0,0,1-2.843-3.6,3.4,3.4,0,0,1,3.273-3.527c2.983-.113,5.974-.029,8.964-.029Z" transform="translate(0 -17.865)"/><path class="a" d="M79.539,90.876c0,2.228-.013,4.456,0,6.685,0,1.058-.352,1.87-1.5,1.865s-1.5-.794-1.494-1.863q.03-6.761,0-13.524c0-1.04.314-1.856,1.491-1.859s1.494.819,1.487,1.859C79.526,86.318,79.539,88.6,79.539,90.876Z" transform="translate(-37.529 -43.793)"/><path class="a" d="M98.086,91.732v7.913c0,.728.038,1.549-.969,1.567-1.073.018-1.106-.823-1.106-1.622V83.917c0-.794,0-1.651,1.08-1.637,1.137.013.978.949.98,1.693C98.09,86.557,98.083,89.143,98.086,91.732Z" transform="translate(-52.683 -43.871)"/><path class="a" d="M61.272,91.787V84.042c0-.741-.159-1.679.978-1.693,1.078-.013,1.08.841,1.08,1.637V99.646c0,.8-.024,1.64-1.106,1.622-1.009-.018-.965-.843-.965-1.567Q61.27,95.73,61.272,91.787Z" transform="translate(-25.622 -43.925)"/><path class="a" d="M57.449,34.205c2.071,0,4.142.049,6.211-.022,1-.035,1.159.4,1.159,1.259s-.257,1.146-1.128,1.137c-4.14-.035-8.282-.046-12.424,0-1,.011-1.153-.409-1.157-1.263s.259-1.155,1.126-1.133C53.307,34.238,55.378,34.205,57.449,34.205Z" transform="translate(-16.94 -6.415)"/><path class="a" d="M66.841,57.482a4.257,4.257,0,0,0-1.308,2.093c-.093.522-.482.555-.918.553H55.824c-.487,0-.916-.013-1.009-.626A4.609,4.609,0,0,0,53.6,57.48Z" transform="translate(-19.658 -24.559)"/><path class="a" d="M51.733,92.9V83.64c0-.4-.221-1.064.478-1.051.651,0,.5.664.5,1.078q.018,9.34,0,18.68c0,.389.044.94-.513.925s-.476-.549-.476-.951Q51.733,97.614,51.733,92.9Z" transform="translate(-18.178 -44.112)"/><path class="a" d="M111.324,92.915v9.26c0,.418.2,1.1-.418,1.131-.79.044-.54-.717-.542-1.151q-.029-9.185,0-18.365c0-.412-.175-1.091.429-1.126.8-.044.529.708.533,1.144C111.335,86.837,111.324,89.875,111.324,92.915Z" transform="translate(-63.833 -44.168)"/><path class="a" d="M50.463,26.938c-2.79,0-5.58.013-8.371-.013-.443,0-1.195.221-1.157-.54.031-.606.715-.412,1.133-.414q8.3-.02,16.6,0c.418,0,1.08-.186,1.093.462s-.651.5-1.071.5C55.944,26.945,53.2,26.936,50.463,26.938Z" transform="translate(-9.794 0)"/><path class="a" d="M63.2,74.62H58.479c-.383,0-.918.093-.909-.509,0-.487.487-.443.819-.443q4.868-.018,9.736,0c.33,0,.81-.046.83.443.024.606-.509.518-.885.52C66.451,74.62,64.829,74.62,63.2,74.62Z" transform="translate(-22.749 -37.159)"/><path class="b" d="M159.057,61.978a4,4,0,0,0-3.295,1.485,6.345,6.345,0,0,0-1.2,4.1,6.38,6.38,0,0,0,1.153,4.138,4.1,4.1,0,0,0,3.341,1.405,8.9,8.9,0,0,0,1.83-.188q.885-.188,1.839-.485V74.52a11.161,11.161,0,0,1-3.965.664,6.334,6.334,0,0,1-5.012-1.978,8.323,8.323,0,0,1-1.757-5.667,9.136,9.136,0,0,1,.85-4.056,6.047,6.047,0,0,1,2.454-2.655,7.444,7.444,0,0,1,3.777-.934,9.357,9.357,0,0,1,4.2.956l-.874,2.022a13.209,13.209,0,0,0-1.591-.624,5.753,5.753,0,0,0-1.755-.27Z" transform="translate(-96.277 -26.437)"/><path class="b" d="M221.439,82.106a6.131,6.131,0,0,1-1.414,4.3,5.079,5.079,0,0,1-3.934,1.549,5.381,5.381,0,0,1-2.786-.712,4.7,4.7,0,0,1-1.861-2.042,6.967,6.967,0,0,1-.651-3.1,6.1,6.1,0,0,1,1.4-4.271,5.069,5.069,0,0,1,3.952-1.531,4.965,4.965,0,0,1,3.863,1.571A6.045,6.045,0,0,1,221.439,82.106Zm-8.187,0q0,3.892,2.877,3.894,2.843,0,2.846-3.894,0-3.855-2.877-3.852a2.445,2.445,0,0,0-2.18,1,5,5,0,0,0-.664,2.857Z" transform="translate(-142.068 -39.214)"/><path class="b" d="M275.613,76.488V77.8l-1.921.356a3.131,3.131,0,0,1,.443.874,3.455,3.455,0,0,1,.173,1.106,3.363,3.363,0,0,1-1.2,2.735,4.979,4.979,0,0,1-3.3.987,5.442,5.442,0,0,1-.976-.08,1.334,1.334,0,0,0-.772,1.106.622.622,0,0,0,.361.58,3.124,3.124,0,0,0,1.328.193h1.963a4.353,4.353,0,0,1,2.826.794,2.8,2.8,0,0,1,.967,2.286,3.332,3.332,0,0,1-1.589,2.969,8.32,8.32,0,0,1-4.556,1.038,6.281,6.281,0,0,1-3.507-.814,2.631,2.631,0,0,1-1.21-2.319,2.465,2.465,0,0,1,.664-1.744,3.527,3.527,0,0,1,1.834-.98,1.788,1.788,0,0,1-.788-.664,1.668,1.668,0,0,1-.31-.951,1.622,1.622,0,0,1,.356-1.067,4.1,4.1,0,0,1,1.055-.865,3.133,3.133,0,0,1-1.418-1.226,3.613,3.613,0,0,1-.542-1.991,3.57,3.57,0,0,1,1.153-2.837,4.835,4.835,0,0,1,3.29-1.007,7.964,7.964,0,0,1,1,.066,6.541,6.541,0,0,1,.788.137Zm-8.835,12.993a1.328,1.328,0,0,0,.7,1.19,3.834,3.834,0,0,0,1.956.416,5.893,5.893,0,0,0,2.907-.56,1.681,1.681,0,0,0,.956-1.483A1.106,1.106,0,0,0,272.772,88a4.19,4.19,0,0,0-1.947-.31h-1.81a2.533,2.533,0,0,0-1.64.474A1.578,1.578,0,0,0,266.778,89.481Zm1.027-9.353a2.26,2.26,0,0,0,.544,1.626,2.065,2.065,0,0,0,1.56.571q2.076,0,2.076-2.213a2.52,2.52,0,0,0-.513-1.693,1.952,1.952,0,0,0-1.562-.6,2,2,0,0,0-1.571.591A2.463,2.463,0,0,0,267.8,80.128Z" transform="translate(-184.001 -39.199)"/><path class="b" d="M326.2,87.961a5.409,5.409,0,0,1-4.1-1.549,5.812,5.812,0,0,1-1.478-4.2,6.372,6.372,0,0,1,1.372-4.33,4.734,4.734,0,0,1,3.762-1.578,4.633,4.633,0,0,1,3.518,1.354,5.167,5.167,0,0,1,1.292,3.72v1.292h-7.486a3.7,3.7,0,0,0,.885,2.516,3.1,3.1,0,0,0,2.348.885,8.629,8.629,0,0,0,1.856-.188,9.71,9.71,0,0,0,1.845-.624V87.2a7.322,7.322,0,0,1-1.77.591A10.884,10.884,0,0,1,326.2,87.961Zm-.443-9.842a2.4,2.4,0,0,0-1.823.721,3.435,3.435,0,0,0-.819,2.106h5.111a3.136,3.136,0,0,0-.664-2.111,2.3,2.3,0,0,0-1.8-.726Z" transform="translate(-227.594 -39.214)"/><path class="b" d="M387.769,87.723h-2.4v-6.9a3.027,3.027,0,0,0-.524-1.943,2.017,2.017,0,0,0-1.662-.639,2.648,2.648,0,0,0-2.213.885,4.942,4.942,0,0,0-.7,3v5.6h-2.39V76.487h1.872l.334,1.476h.124a3.319,3.319,0,0,1,1.443-1.241,4.828,4.828,0,0,1,2.073-.443q4.047,0,4.047,4.118Z" transform="translate(-272.184 -39.198)"/><path class="b" d="M437.207,77.9a5.87,5.87,0,0,0,1.75-.274v1.8a4.844,4.844,0,0,1-1.022.29,7.082,7.082,0,0,1-1.286.126q-3.394,0-3.394-3.578V70.191H431.72V69.134l1.646-.885.814-2.379h1.474v2.5h3.2v1.821h-3.213V76.21a1.691,1.691,0,0,0,.431,1.277A1.575,1.575,0,0,0,437.207,77.9Z" transform="translate(-314.111 -31.092)"/></g></svg>